<svg width="373" height="300" viewBox="0 0 373 300" fill="none" xmlns="http://www.w3.org/2000/svg">
<path d="M179.794 299.6C262.361 299.6 329.299 232.662 329.299 149.8C329.299 66.9382 262.361 0 179.794 0C97.2273 0 30.2891 66.9382 30.2891 149.8C30.2891 232.662 97.2273 299.6 179.794 299.6Z" fill="#F4F4F4"/>
<path d="M346.401 88.1701C353.078 88.1701 358.491 82.7571 358.491 76.0799C358.491 69.4027 353.078 63.9897 346.401 63.9897C339.723 63.9897 334.311 69.4027 334.311 76.0799C334.311 82.7571 339.723 88.1701 346.401 88.1701Z" fill="#F4F4F4"/>
<path d="M364.097 40.6941C368.657 40.6941 372.353 36.9974 372.353 32.4374C372.353 27.8773 368.657 24.1807 364.097 24.1807C359.536 24.1807 355.84 27.8773 355.84 32.4374C355.84 36.9974 359.536 40.6941 364.097 40.6941Z" fill="#F4F4F4"/>
<path d="M19.9657 96.7219C24.5257 96.7219 28.2224 93.0252 28.2224 88.4652C28.2224 83.9051 24.5257 80.2085 19.9657 80.2085C15.4056 80.2085 11.709 83.9051 11.709 88.4652C11.709 93.0252 15.4056 96.7219 19.9657 96.7219Z" fill="#F4F4F4"/>
<path d="M35.3007 276.304C43.7693 276.304 50.6345 269.439 50.6345 260.97C50.6345 252.501 43.7693 245.636 35.3007 245.636C26.832 245.636 19.9668 252.501 19.9668 260.97C19.9668 269.439 26.832 276.304 35.3007 276.304Z" fill="#F4F4F4"/>
<g filter="url(#filter0_d_3455_1771)">
<path d="M318.388 89.9392H62.7252C57.1224 89.9392 52.6992 85.516 52.6992 79.9132V22.4112C52.6992 16.8085 57.1224 12.3853 62.7252 12.3853H318.093C323.696 12.3853 328.119 16.8085 328.119 22.4112V79.9132C328.414 85.516 323.696 89.9392 318.388 89.9392Z" fill="white"/>
</g>
<path d="M114.625 51.0151C114.625 57.5025 111.676 63.4001 107.253 67.5285C103.419 71.067 98.1115 73.1312 92.5087 73.1312C86.906 73.1312 81.5981 71.067 77.7646 67.5285C73.0465 63.4001 70.3926 57.5025 70.3926 51.0151C70.3926 38.9249 80.4186 28.8989 92.5087 28.8989C104.599 28.8989 114.625 38.9249 114.625 51.0151Z" fill="#EBEBEB"/>
<path d="M107.252 67.528C103.418 71.0666 98.1105 73.1308 92.5078 73.1308C86.905 73.1308 81.5971 71.0666 77.7637 67.528C79.533 66.9383 81.5971 66.0536 84.2511 64.8741C84.8408 64.5792 85.4306 63.9895 85.7255 63.3997C86.0204 63.1048 86.0204 62.515 86.0204 62.2202V56.6174L85.7255 56.3225C85.1357 55.7328 84.8408 54.8481 84.8408 53.9635L84.2511 53.6686C82.7767 53.9635 83.0715 52.4891 82.4818 49.5402C82.4818 48.3607 82.4818 48.0658 83.0715 47.771L83.6613 47.1812C81.0074 40.9887 82.1869 37.1552 85.1357 35.6808C84.2511 33.6166 84.2511 33.0269 84.2511 33.0269C84.2511 33.0269 90.1487 33.9115 91.918 33.6166C94.5719 33.0269 98.4054 33.6166 99.8798 37.1552C102.239 38.0398 103.124 39.5143 103.418 41.2835C103.713 43.9375 102.239 46.8863 101.944 47.771C102.239 48.0658 102.534 48.3607 102.239 49.2454C101.944 51.8993 101.944 53.6686 100.47 53.3737L99.29 56.0276C99.29 56.3225 99.29 56.3225 99.29 56.6174C99.29 56.9123 99.29 57.7969 99.29 62.515C99.29 63.1048 99.5849 63.6946 99.5849 63.9895C99.8798 64.5792 100.47 64.8741 100.764 65.169C103.418 66.0536 105.483 66.9383 107.252 67.528Z" fill="white"/>
<path d="M102.023 48.0659C102.023 47.452 101.716 46.5313 101.409 45.9174V45.6105C100.181 43.1552 97.726 42.2344 95.2706 42.2344C89.1323 41.9275 88.5184 43.1552 86.37 41.3137C86.9838 42.2344 86.9838 43.769 86.0631 45.6105C85.4492 46.8382 84.2216 47.452 82.9939 47.759C80.2316 41.3137 81.4593 37.3237 84.5285 35.7891C83.6077 33.6407 83.6077 33.0269 83.6077 33.0269C83.6077 33.0269 89.7461 33.9476 91.5876 33.6407C94.3499 33.0269 98.3398 33.6407 99.8744 37.3237C102.33 38.2445 103.251 39.7791 103.557 41.6206C103.864 43.769 102.33 46.8382 102.023 48.0659Z" fill="#979797"/>
<path d="M99.5821 63.9892V65.1687H85.7227V63.6943C86.0175 63.3994 86.0175 62.8097 86.0175 62.5148V56.912L85.7227 56.6171V56.3223C86.0175 56.912 86.3124 57.2069 86.9022 57.7967L91.3254 60.7455C92.2101 61.6301 93.6845 61.6301 94.864 60.7455L98.9923 57.2069L99.2872 56.912C99.2872 57.2069 99.2872 58.0916 99.2872 62.8097C98.9923 63.1045 99.2872 63.3994 99.5821 63.9892Z" fill="url(#paint0_linear_3455_1771)"/>
<path d="M187.164 44.5267H130.547C129.072 44.5267 128.188 43.3472 128.188 42.1676V34.7956C128.188 33.3212 129.367 32.4365 130.547 32.4365H187.164C188.638 32.4365 189.523 33.6161 189.523 34.7956V42.1676C189.523 43.642 188.638 44.5267 187.164 44.5267Z" fill="#EAEAEA"/>
<path d="M254.397 69.5916H130.547C129.072 69.5916 128.188 68.4121 128.188 67.2326V59.8605C128.188 58.3861 129.367 57.5015 130.547 57.5015H254.397C255.871 57.5015 256.756 58.681 256.756 59.8605V67.2326C256.756 68.707 255.576 69.5916 254.397 69.5916Z" fill="#EAEAEA"/>
<g filter="url(#filter1_d_3455_1771)">
<path d="M318.388 283.381H62.7252C57.1224 283.381 52.6992 278.957 52.6992 273.355V215.853C52.6992 210.25 57.1224 205.827 62.7252 205.827H318.093C323.696 205.827 328.119 210.25 328.119 215.853V273.355C328.414 278.957 323.696 283.381 318.388 283.381Z" fill="white"/>
</g>
<path d="M114.625 244.456C114.625 250.944 111.676 256.842 107.253 260.97C103.419 264.508 98.1115 266.573 92.5087 266.573C86.906 266.573 81.5981 264.508 77.7646 260.97C73.0465 256.842 70.3926 250.944 70.3926 244.456C70.3926 232.366 80.4186 222.34 92.5087 222.34C104.599 222.34 114.625 232.366 114.625 244.456Z" fill="#EBEBEB"/>
<path d="M107.252 260.969C103.418 264.508 98.1105 266.572 92.5078 266.572C86.905 266.572 81.5971 264.508 77.7637 260.969C79.533 260.38 81.5971 259.495 84.2511 258.315C84.8408 258.021 85.4306 257.431 85.7255 256.841C86.0204 256.546 86.0204 255.956 86.0204 255.662V250.059L85.7255 249.764C85.1357 249.174 84.8408 248.29 84.8408 247.405L84.2511 247.11C82.7767 247.405 83.0715 245.93 82.4818 242.982C82.4818 241.802 82.4818 241.507 83.0715 241.212L83.6613 240.623C81.0074 234.43 82.1869 230.597 85.1357 229.122C84.2511 227.058 84.2511 226.468 84.2511 226.468C84.2511 226.468 90.1487 227.353 91.918 227.058C94.5719 226.468 98.4054 227.058 99.8798 230.597C102.239 231.481 103.124 232.956 103.418 234.725C103.713 237.379 102.239 240.328 101.944 241.212C102.239 241.507 102.534 241.802 102.239 242.687C101.944 245.341 101.944 247.11 100.47 246.815L99.29 249.174C99.29 249.469 99.29 249.469 99.29 249.764C99.29 250.059 99.29 250.943 99.29 255.662C99.29 256.251 99.5849 256.841 99.5849 257.136C99.8798 257.726 100.47 258.021 100.764 258.315C103.418 259.79 105.483 260.38 107.252 260.969Z" fill="white"/>
<path d="M102.023 241.507C102.023 240.893 101.716 239.973 101.409 239.359V239.052C100.181 236.597 97.726 235.676 95.2706 235.676C89.1323 235.369 88.5184 236.597 86.37 234.755C86.9838 235.676 86.9838 237.21 86.0631 239.052C85.4492 240.28 84.2216 240.893 82.9939 241.2C80.2316 234.755 81.4593 230.765 84.5285 229.231C83.6077 227.082 83.6077 226.468 83.6077 226.468C83.6077 226.468 89.7461 227.389 91.5876 227.082C94.3499 226.468 98.3398 227.082 99.8744 230.765C102.33 231.686 103.251 233.22 103.557 235.062C103.864 237.517 102.33 240.28 102.023 241.507Z" fill="#979797"/>
<path d="M99.5821 257.431V258.61H85.7227V257.136C86.0175 256.841 86.0175 256.251 86.0175 255.956V250.353L85.7227 250.059V249.764C86.0175 250.353 86.3124 250.648 86.9022 251.238L91.3254 254.187C92.2101 255.072 93.6845 255.072 94.864 254.187L98.9923 250.648L99.2872 250.353C99.2872 250.648 99.2872 251.533 99.2872 256.251C98.9923 256.546 99.2872 257.136 99.5821 257.431Z" fill="url(#paint1_linear_3455_1771)"/>
<path d="M187.164 238.264H130.547C129.072 238.264 128.188 237.084 128.188 235.904V228.532C128.188 227.058 129.367 226.173 130.547 226.173H187.164C188.638 226.173 189.523 227.353 189.523 228.532V235.904C189.523 237.084 188.638 238.264 187.164 238.264Z" fill="#EAEAEA"/>
<path d="M254.397 263.328H130.547C129.072 263.328 128.188 262.149 128.188 260.969V253.597C128.188 252.123 129.367 251.238 130.547 251.238H254.397C255.871 251.238 256.756 252.418 256.756 253.597V260.969C256.756 262.149 255.576 263.328 254.397 263.328Z" fill="#EAEAEA"/>
<g filter="url(#filter2_d_3455_1771)">
<path d="M275.04 186.66H19.6725C14.0697 186.66 9.64648 182.237 9.64648 176.634V119.132C9.64648 113.529 14.0697 109.106 19.6725 109.106H275.04C280.643 109.106 285.066 113.529 285.066 119.132V176.634C285.361 182.237 280.643 186.66 275.04 186.66Z" fill="white"/>
</g>
<path d="M144.111 141.247H87.4938C86.0194 141.247 85.1348 140.068 85.1348 138.888V131.516C85.1348 130.042 86.3143 129.157 87.4938 129.157H144.111C145.586 129.157 146.47 130.337 146.47 131.516V138.888C146.47 140.363 145.586 141.247 144.111 141.247Z" fill="#EAEAEA"/>
<path d="M211.344 166.608H87.4938C86.0194 166.608 85.1348 165.428 85.1348 164.249V156.877C85.1348 155.402 86.3143 154.518 87.4938 154.518H211.049C212.524 154.518 213.408 155.697 213.408 156.877V164.249C213.703 165.428 212.524 166.608 211.344 166.608Z" fill="#EAEAEA"/>
<path d="M71.867 147.736C71.867 153.928 69.2131 159.531 65.0847 163.659C64.7898 163.954 64.7898 163.954 64.495 164.249C60.6615 167.788 55.3536 169.852 49.7509 169.852C44.1481 169.852 39.1351 167.788 35.3017 164.544C35.3017 164.544 35.3017 164.544 35.0068 164.544C30.2887 160.416 27.3398 154.518 27.3398 147.736C27.3398 135.646 37.3658 125.62 49.456 125.62C61.841 125.62 71.867 135.646 71.867 147.736Z" fill="#EBEBEB"/>
<path d="M64.994 164.108C64.0968 162.015 62.6017 160.221 60.2093 159.025C59.0132 158.426 58.1161 158.127 56.6209 158.127H55.7238C53.6305 158.127 53.3314 157.828 53.3314 157.828V154.24C55.7238 152.446 57.518 150.053 58.1161 147.362C59.6113 147.063 60.5084 145.867 60.2093 144.372C60.2093 143.774 59.6113 143.175 59.6113 142.577C59.6113 142.278 59.6113 141.979 59.6113 141.68C59.6113 141.381 59.6113 141.381 59.6113 141.082C59.6113 140.783 59.6113 140.783 59.6113 140.484C59.6113 139.288 59.3122 138.391 58.4151 137.195C56.6209 133.905 53.0324 131.812 49.1449 131.812C48.2478 131.812 47.6497 131.812 46.7526 132.111C45.2574 132.41 44.0612 133.008 42.8651 133.905C42.566 134.204 42.566 134.204 42.267 134.503C42.267 134.503 42.267 134.503 41.968 134.802C40.7718 135.999 39.8747 137.494 39.2766 138.989C38.6785 140.484 38.6785 142.278 38.6785 144.073C38.6785 144.073 38.6785 144.073 38.6785 144.372C38.6785 144.671 38.6785 144.671 38.6785 144.97C38.6785 144.97 38.6785 145.269 38.3795 145.269C38.9776 144.671 38.6785 145.568 38.9776 146.166C39.5756 147.661 40.4728 147.362 41.6689 148.259C41.6689 148.259 41.6689 148.259 41.3699 148.259L40.1737 148.558C33.5949 150.651 32.9968 157.529 39.5756 159.025C38.9776 159.324 38.6785 159.623 38.3795 159.623C36.5852 161.118 35.3891 162.912 34.791 164.706C38.6785 167.996 43.7622 170.089 49.4439 170.089C55.1257 170.089 60.5084 167.996 64.3959 164.407C64.6949 164.706 64.994 164.407 64.994 164.108C65.293 164.108 65.293 164.108 64.994 164.108ZM46.4535 156.931C46.1545 156.632 45.8555 156.333 45.8555 156.333C45.5564 156.034 45.2574 156.034 44.9583 155.735C44.9583 155.735 44.6593 155.735 44.6593 155.436C43.7622 154.838 42.8651 154.24 42.566 153.343C42.566 153.044 42.8651 152.446 43.4631 151.848C43.7622 152.147 44.0612 152.446 44.3603 153.044C44.6593 153.343 44.9583 153.642 45.2574 153.941C45.5564 153.941 45.8555 154.24 45.8555 154.539C45.8555 154.539 45.8555 154.539 46.1545 154.539C46.1545 154.539 46.1545 154.539 46.4535 154.539V156.931Z" fill="white"/>
<path d="M56.0843 157.956C55.7894 159.136 55.1996 160.02 55.1996 160.02L43.9941 158.251L44.5839 155.302C44.5839 155.302 44.8788 155.302 44.8788 155.597C45.1737 155.892 45.4685 155.892 45.7634 156.187C46.0583 156.187 46.0583 156.482 46.3532 156.776V154.712C46.3532 154.712 46.3532 154.712 46.0583 154.712C47.8276 155.597 50.1867 156.187 53.4304 154.123V157.661C53.7252 157.661 54.0201 157.956 56.0843 157.956Z" fill="url(#paint2_linear_3455_1771)"/>
<path d="M53.7637 141.509C55.8674 141.509 57.9711 141.208 59.7742 140.607C59.7742 140.607 59.7742 140.307 60.0748 140.006C59.7742 139.105 59.4737 137.903 58.8727 136.701C57.0695 133.395 53.4631 131.291 49.5563 131.291C48.6547 131.291 47.7899 131.355 46.584 131.656C44.9793 132.146 44.2341 132.577 43.854 132.808C43.854 132.808 42.9756 133.398 42.3436 133.996C41.7115 134.593 40.2399 136.701 39.6388 138.203C39.0377 140.006 38.5528 141.539 38.8533 143.342C39.1539 143.342 39.6388 143.012 39.9393 143.012C42.3436 141.81 44.1467 140.307 45.0483 137.903C47.4526 140.006 50.4578 141.208 53.7637 141.509Z" fill="#979797"/>
<path d="M43.5586 152.159C43.8535 152.454 44.1484 152.749 44.4432 153.044C44.1484 152.749 43.8535 152.454 43.5586 152.159Z" fill="#3973F4"/>
<path d="M47.6877 163.07C46.803 164.25 45.3286 164.25 43.8542 164.25C45.3286 162.775 44.444 158.352 39.7259 158.942C32.9436 157.762 33.8282 150.685 40.3156 148.621L41.4952 148.326C41.4952 148.326 41.4952 148.326 41.79 148.621C42.3798 150.095 42.9696 150.98 43.8542 152.16C41.2003 154.519 45.0337 155.108 46.803 156.878C47.9826 157.468 49.1621 161.301 47.6877 163.07Z" fill="#979797"/>
<defs>
<filter id="filter0_d_3455_1771" x="43.6992" y="8.38525" width="293.434" height="95.5537" filterUnits="userSpaceOnUse" color-interpolation-filters="sRGB">
<feFlood flood-opacity="0" result="BackgroundImageFix"/>
<feColorMatrix in="SourceAlpha" type="matrix" values="0 0 0 0 0 0 0 0 0 0 0 0 0 0 0 0 0 0 127 0" result="hardAlpha"/>
<feOffset dy="5"/>
<feGaussianBlur stdDeviation="4.5"/>
<feColorMatrix type="matrix" values="0 0 0 0 0.397708 0 0 0 0 0.47749 0 0 0 0 0.575 0 0 0 0.17 0"/>
<feBlend mode="normal" in2="BackgroundImageFix" result="effect1_dropShadow_3455_1771"/>
<feBlend mode="normal" in="SourceGraphic" in2="effect1_dropShadow_3455_1771" result="shape"/>
</filter>
<filter id="filter1_d_3455_1771" x="43.6992" y="201.827" width="293.434" height="95.5537" filterUnits="userSpaceOnUse" color-interpolation-filters="sRGB">
<feFlood flood-opacity="0" result="BackgroundImageFix"/>
<feColorMatrix in="SourceAlpha" type="matrix" values="0 0 0 0 0 0 0 0 0 0 0 0 0 0 0 0 0 0 127 0" result="hardAlpha"/>
<feOffset dy="5"/>
<feGaussianBlur stdDeviation="4.5"/>
<feColorMatrix type="matrix" values="0 0 0 0 0.397708 0 0 0 0 0.47749 0 0 0 0 0.575 0 0 0 0.17 0"/>
<feBlend mode="normal" in2="BackgroundImageFix" result="effect1_dropShadow_3455_1771"/>
<feBlend mode="normal" in="SourceGraphic" in2="effect1_dropShadow_3455_1771" result="shape"/>
</filter>
<filter id="filter2_d_3455_1771" x="0.646484" y="105.106" width="293.434" height="95.5537" filterUnits="userSpaceOnUse" color-interpolation-filters="sRGB">
<feFlood flood-opacity="0" result="BackgroundImageFix"/>
<feColorMatrix in="SourceAlpha" type="matrix" values="0 0 0 0 0 0 0 0 0 0 0 0 0 0 0 0 0 0 127 0" result="hardAlpha"/>
<feOffset dy="5"/>
<feGaussianBlur stdDeviation="4.5"/>
<feColorMatrix type="matrix" values="0 0 0 0 0.397708 0 0 0 0 0.47749 0 0 0 0 0.575 0 0 0 0.17 0"/>
<feBlend mode="normal" in2="BackgroundImageFix" result="effect1_dropShadow_3455_1771"/>
<feBlend mode="normal" in="SourceGraphic" in2="effect1_dropShadow_3455_1771" result="shape"/>
</filter>
<linearGradient id="paint0_linear_3455_1771" x1="92.6566" y1="65.2226" x2="92.6566" y2="60.3491" gradientUnits="userSpaceOnUse">
<stop stop-color="white"/>
<stop offset="1" stop-color="#E2E5EC"/>
</linearGradient>
<linearGradient id="paint1_linear_3455_1771" x1="92.6566" y1="258.664" x2="92.6566" y2="253.791" gradientUnits="userSpaceOnUse">
<stop stop-color="white"/>
<stop offset="1" stop-color="#E2E5EC"/>
</linearGradient>
<linearGradient id="paint2_linear_3455_1771" x1="50.0429" y1="160.056" x2="50.0429" y2="156.807" gradientUnits="userSpaceOnUse">
<stop stop-color="white"/>
<stop offset="1" stop-color="#E2E5EC"/>
</linearGradient>
</defs>
</svg>
