<?xml version="1.0" encoding="utf-8"?>
<!-- Generator: Adobe Illustrator 23.1.0, SVG Export Plug-In . SVG Version: 6.00 Build 0)  -->
<svg version="1.1" id="Layer_2" xmlns="http://www.w3.org/2000/svg" xmlns:xlink="http://www.w3.org/1999/xlink" x="0px" y="0px"
	 viewBox="0 0 25 25" style="enable-background:new 0 0 25 25;" xml:space="preserve">
<g>
	<g>
		<path d="M13.1,5.8h5.2l-4.5,11.3c0,0.1-0.1,0.2-0.1,0.2c0,3.1,2.5,5.6,5.6,5.6s5.6-2.5,5.6-5.6c0-0.1,0-0.2-0.1-0.2l0,0L20.3,5.9
			h2.1c0.4,0,0.7-0.3,0.7-0.7s-0.3-0.7-0.7-0.7h-9.3V2.6c0-0.4-0.3-0.7-0.7-0.7c-0.4,0-0.7,0.3-0.7,0.7v1.9H2.5
			c-0.4,0-0.7,0.3-0.7,0.7s0.3,0.7,0.7,0.7h2.2L0.1,17.1c0,0.1-0.1,0.2-0.1,0.2c0,3.1,2.5,5.6,5.6,5.6s5.6-2.5,5.6-5.6
			c0-0.1,0-0.2-0.1-0.2L6.7,5.8h5.1L13.1,5.8z M5.7,21.6c-2.1,0-3.8-1.5-4.2-3.6h8.3C9.5,20.1,7.7,21.6,5.7,21.6z M9.6,16.7H1.8
			L5.7,7L9.6,16.7z M19.3,7l3.9,9.7h-7.8L19.3,7z M19.3,21.6L19.3,21.6c-2.1,0-3.8-1.5-4.2-3.6h8.3C23.2,20.1,21.4,21.6,19.3,21.6z"
			/>
	</g>
</g>
</svg>
