<?xml version="1.0" encoding="utf-8"?>
<!-- Generator: Adobe Illustrator 23.1.0, SVG Export Plug-In . SVG Version: 6.00 Build 0)  -->
<svg version="1.1" id="Layer_3" xmlns="http://www.w3.org/2000/svg" xmlns:xlink="http://www.w3.org/1999/xlink" x="0px" y="0px"
	 viewBox="0 0 25 25" style="enable-background:new 0 0 25 25;" xml:space="preserve">
<style type="text/css">
	.st0{fill:#020203;}
</style>
<g>
	<g>
		<path class="st0" d="M22.8,4.8c-1.2-1.3-2.8-2-4.6-2c-2.5,0-4.1,1.4-5,2.6c-0.2,0.3-0.4,0.6-0.6,0.9c-0.2-0.3-0.4-0.6-0.6-0.9
			c-0.9-1.2-2.5-2.6-5-2.6c-1.8,0-3.4,0.7-4.6,2C1.2,6,0.6,7.6,0.6,9.4c0,1.9,0.8,3.7,2.5,5.5c1.5,1.7,3.7,3.4,6.1,5.4
			c0.9,0.7,1.9,1.5,2.9,2.4l0,0c0.1,0.1,0.3,0.2,0.5,0.2c0.2,0,0.3-0.1,0.5-0.2l0,0c1-0.8,2-1.6,2.9-2.4c2.5-2,4.6-3.8,6.1-5.4
			c1.7-1.9,2.5-3.7,2.5-5.5C24.5,7.6,23.9,6,22.8,4.8z M15,19.3c-0.8,0.6-1.6,1.3-2.5,2c-0.9-0.7-1.7-1.4-2.5-2
			C5.2,15.4,2,12.8,2,9.4c0-1.4,0.5-2.7,1.4-3.7c0.9-1,2.2-1.5,3.6-1.5c1.9,0,3.2,1.1,3.9,2.1c0.6,0.8,1,1.7,1.1,2
			c0.1,0.3,0.4,0.5,0.7,0.5s0.6-0.2,0.7-0.5c0.1-0.3,0.4-1.2,1.1-2c0.7-0.9,1.9-2.1,3.9-2.1c1.4,0,2.7,0.5,3.6,1.5
			c0.9,1,1.4,2.3,1.4,3.7C23.1,12.8,19.9,15.4,15,19.3z"/>
	</g>
</g>
</svg>
